<?xml version="1.0" encoding="UTF-8" standalone="no"?>
<!DOCTYPE svg PUBLIC "-//W3C//DTD SVG 1.1//EN" "http://www.w3.org/Graphics/SVG/1.1/DTD/svg11.dtd">
<svg width="100%" height="100%" viewBox="0 0 123 57" version="1.1" xmlns="http://www.w3.org/2000/svg" xmlns:xlink="http://www.w3.org/1999/xlink" xml:space="preserve" xmlns:serif="http://www.serif.com/" style="fill-rule:evenodd;clip-rule:evenodd;stroke-linejoin:round;stroke-miterlimit:2;">
    <path d="M79.892,11.947C70.111,11.166 62.844,20.981 63.624,30.278C64.578,41.654 79.359,42.205 84.782,33.519L84.464,33.047C84.464,33.047 83.418,33.972 83.347,34.031C82.762,34.549 82.197,35.067 81.515,35.454C80.794,35.868 80.015,36.163 79.216,36.393C77.593,36.865 75.826,36.957 74.196,36.452C71.053,35.481 69.507,32.417 69.17,29.294C69.17,29.294 81.015,26.742 84.451,23.087C88.918,18.344 86.204,12.439 79.892,11.934L79.892,11.947ZM73.722,15.365C75.157,13.83 76.794,13.036 78.969,13.089C83.593,13.2 83.067,18.724 81.392,21.592C79.255,25.259 69.111,28.093 69.111,28.093L69.079,27.883C68.78,24.662 70.982,18.285 73.722,15.365Z" style="fill:rgb(213,241,168);fill-rule:nonzero;"/>
    <path d="M32.698,38.184C31.412,37.036 30.425,35.592 29.795,33.978L17.34,2.257L16.08,2.257L3.033,34.615C2.429,36.111 1.461,37.436 0.188,38.427C0.11,38.486 0.045,38.532 0,38.564L0,39.109L7.105,39.109L7.105,38.564C5.358,37.606 4.611,35.468 5.364,33.611L6.942,29.701C10.235,28.959 16.151,27.404 21.282,25.089L24.873,34.228C25.34,35.579 25.561,36.865 24.327,37.948C24.055,38.19 23.483,38.433 23.113,38.577L23.113,39.115L33.185,39.115L33.185,38.577C33.12,38.551 32.939,38.407 32.705,38.197L32.698,38.184ZM7.871,27.91L15.216,9.677L19.898,21.605C18.392,23.179 13.099,26.453 7.871,27.91Z" style="fill:rgb(213,241,168);fill-rule:nonzero;"/>
    <path d="M100.569,36.681C100.296,36.622 100.037,36.537 99.796,36.432C98.199,35.704 97.413,33.985 97.419,32.292L97.419,13.62L103.797,13.62L103.797,12.393L97.419,12.393L97.419,8.135L88.652,12.997L88.652,13.62L92.425,13.62L92.438,32.358C92.438,33.768 92.62,35.094 93.348,36.321C93.978,37.39 94.9,38.282 96.004,38.833C96.815,39.247 97.764,39.443 98.673,39.483C100.387,39.568 102.199,39.069 103.498,37.902C104.232,37.239 104.875,36.314 105.277,35.408L105.005,35.1C103.946,36.373 102.193,37.009 100.569,36.675L100.569,36.681Z" style="fill:rgb(213,241,168);fill-rule:nonzero;"/>
    <path d="M122.727,35.107C121.669,36.38 119.915,37.016 118.292,36.681C118.019,36.622 117.759,36.537 117.519,36.432C115.921,35.704 115.136,33.985 115.142,32.292L115.142,13.62L121.519,13.62L121.519,12.393L115.142,12.393L115.142,8.135L106.375,12.997L106.375,13.62L110.148,13.62L110.161,32.358C110.161,33.768 110.343,35.094 111.07,36.321C111.7,37.39 112.622,38.282 113.726,38.833C114.538,39.247 115.486,39.443 116.395,39.483C118.11,39.568 119.922,39.069 121.221,37.902C121.954,37.239 122.597,36.314 123,35.408L122.727,35.1L122.727,35.107Z" style="fill:rgb(213,241,168);fill-rule:nonzero;"/>
    <path d="M45.115,13.259C43.427,14.125 41.907,15.162 40.836,16.723C40.758,16.842 40.628,17.025 40.53,17.202L40.251,17.065C40.316,16.481 40.608,15.398 40.836,14.834L40.836,0L33.893,2.467L33.893,2.769C34.211,2.939 34.406,3.136 34.627,3.425C35.4,4.409 35.971,6.036 35.971,7.046L35.971,39.122L37.069,39.122L39.251,35.992C39.602,36.261 40.271,36.786 40.563,37.009C47.135,41.93 56.363,39.312 59.195,31.551C60.805,27.122 60.409,20.443 57.772,16.474C54.934,12.197 49.661,10.911 45.115,13.266L45.115,13.259ZM51.765,36.196C50.285,37.783 48.343,38.407 46.44,38.243C43.303,37.974 40.933,35.245 40.933,32.063L40.933,20.903C40.933,18.219 42.621,15.785 45.161,15.005C45.252,14.978 45.343,14.952 45.433,14.926C56.259,12.131 56.694,30.888 51.765,36.196Z" style="fill:rgb(213,241,168);fill-rule:nonzero;"/>
    <path d="M15.8,55.616L15.755,55.616C15.618,56.396 14.865,57 13.67,57C11.8,57 10.384,55.557 10.384,52.867C10.384,50.177 11.806,48.688 13.93,48.688C15.346,48.688 16.372,49.344 16.943,50.518L15.722,51.246C15.437,50.557 14.878,50.039 13.93,50.039C12.755,50.039 11.982,50.787 11.982,52.204L11.982,53.497C11.982,54.901 12.755,55.662 13.956,55.662C14.891,55.662 15.657,55.202 15.657,54.29L15.657,53.772L14.092,53.772L14.092,52.493L17.106,52.493L17.106,56.869L15.807,56.869L15.807,55.622L15.8,55.616Z" style="fill:white;fill-rule:nonzero;"/>
    <path d="M20.1,52.84C20.1,50.124 21.476,48.681 23.567,48.681C25.659,48.681 27.035,50.118 27.035,52.84C27.035,55.563 25.665,57 23.567,57C21.47,57 20.1,55.557 20.1,52.84ZM25.438,53.464L25.438,52.217C25.438,50.846 24.71,50.026 23.567,50.026C22.424,50.026 21.697,50.846 21.697,52.217L21.697,53.464C21.697,54.835 22.424,55.655 23.567,55.655C24.71,55.655 25.438,54.835 25.438,53.464Z" style="fill:white;fill-rule:nonzero;"/>
    <path d="M29.821,56.862L29.821,55.642L30.873,55.642L30.873,50.046L29.821,50.046L29.821,48.825L33.439,48.825L33.439,50.046L32.38,50.046L32.38,55.642L33.439,55.642L33.439,56.862L29.821,56.862Z" style="fill:white;fill-rule:nonzero;"/>
    <path d="M38.855,52.736L38.036,51.063L38.004,51.063L38.004,56.856L36.582,56.856L36.582,48.812L38.238,48.812L40.634,52.939L41.452,54.612L41.485,54.612L41.485,48.819L42.907,48.819L42.907,56.862L41.251,56.862L38.855,52.736Z" style="fill:white;fill-rule:nonzero;"/>
    <path d="M51.44,55.616L51.395,55.616C51.259,56.396 50.505,57 49.31,57C47.44,57 46.024,55.557 46.024,52.867C46.024,50.177 47.447,48.688 49.57,48.688C50.986,48.688 52.012,49.344 52.583,50.518L51.362,51.246C51.077,50.557 50.518,50.039 49.57,50.039C48.395,50.039 47.622,50.787 47.622,52.204L47.622,53.497C47.622,54.901 48.395,55.662 49.596,55.662C50.531,55.662 51.298,55.202 51.298,54.29L51.298,53.772L49.733,53.772L49.733,52.493L52.746,52.493L52.746,56.869L51.447,56.869L51.447,55.622L51.44,55.616Z" style="fill:white;fill-rule:nonzero;"/>
    <path d="M60.37,48.819L64.052,48.819C65.364,48.819 66.163,49.639 66.163,50.879C66.163,52.119 65.468,52.558 64.741,52.604L64.741,52.676C65.436,52.69 66.462,53.182 66.462,54.553C66.462,55.845 65.585,56.856 64.409,56.856L60.37,56.856L60.37,48.812L60.37,48.819ZM61.877,52.171L63.734,52.171C64.28,52.171 64.604,51.85 64.604,51.318L64.604,50.964C64.604,50.42 64.286,50.111 63.734,50.111L61.877,50.111L61.877,52.171ZM61.877,55.57L63.974,55.57C64.546,55.57 64.89,55.261 64.89,54.697L64.89,54.304C64.89,53.739 64.546,53.418 63.974,53.418L61.877,53.418L61.877,55.57Z" style="fill:white;fill-rule:nonzero;"/>
    <path d="M69.527,56.862L69.527,48.819L74.774,48.819L74.774,50.164L71.034,50.164L71.034,52.112L74.339,52.112L74.339,53.457L71.034,53.457L71.034,55.511L74.774,55.511L74.774,56.856L69.527,56.856L69.527,56.862Z" style="fill:white;fill-rule:nonzero;"/>
    <path d="M79.801,56.862L79.801,53.707L77.073,48.819L78.762,48.819L80.6,52.217L80.625,52.217L82.418,48.819L84.061,48.819L81.327,53.693L81.327,56.862L79.801,56.862Z" style="fill:white;fill-rule:nonzero;"/>
    <path d="M85.853,52.84C85.853,50.124 87.23,48.681 89.321,48.681C91.412,48.681 92.789,50.118 92.789,52.84C92.789,55.563 91.419,57 89.321,57C87.224,57 85.853,55.557 85.853,52.84ZM91.192,53.464L91.192,52.217C91.192,50.846 90.464,50.026 89.321,50.026C88.178,50.026 87.451,50.846 87.451,52.217L87.451,53.464C87.451,54.835 88.178,55.655 89.321,55.655C90.464,55.655 91.192,54.835 91.192,53.464Z" style="fill:white;fill-rule:nonzero;"/>
    <path d="M98.192,52.736L97.374,51.063L97.341,51.063L97.341,56.856L95.919,56.856L95.919,48.812L97.575,48.812L99.972,52.939L100.79,54.612L100.822,54.612L100.822,48.819L102.245,48.819L102.245,56.862L100.589,56.862L98.192,52.736Z" style="fill:white;fill-rule:nonzero;"/>
    <path d="M105.706,48.819L108.602,48.819C110.68,48.819 112.031,50.164 112.031,52.841C112.031,55.517 110.674,56.862 108.602,56.862L105.706,56.862L105.706,48.819ZM108.602,55.511C109.719,55.511 110.44,54.842 110.44,53.47L110.44,52.204C110.44,50.833 109.719,50.164 108.602,50.164L107.213,50.164L107.213,55.511L108.602,55.511Z" style="fill:white;fill-rule:nonzero;"/>
</svg>
